<svg width="190" height="40" viewBox="0 0 190 40" fill="none" xmlns="http://www.w3.org/2000/svg">
<path d="M75.576 14.464C77.24 14.464 78.56 14.968 79.536 15.976C80.528 16.984 81.024 18.384 81.024 20.176V28H76.944V20.728C76.944 19.864 76.712 19.2 76.248 18.736C75.8 18.256 75.176 18.016 74.376 18.016C73.576 18.016 72.944 18.256 72.48 18.736C72.032 19.2 71.808 19.864 71.808 20.728V28H67.728V20.728C67.728 19.864 67.496 19.2 67.032 18.736C66.584 18.256 65.96 18.016 65.16 18.016C64.36 18.016 63.728 18.256 63.264 18.736C62.816 19.2 62.592 19.864 62.592 20.728V28H58.488V14.608H62.592V16.288C63.008 15.728 63.552 15.288 64.224 14.968C64.896 14.632 65.656 14.464 66.504 14.464C67.512 14.464 68.408 14.68 69.192 15.112C69.992 15.544 70.616 16.16 71.064 16.96C71.528 16.224 72.16 15.624 72.96 15.16C73.76 14.696 74.632 14.464 75.576 14.464ZM97.5743 14.608L89.1743 34.36H84.7583L87.8303 27.544L82.3822 14.608H86.9663L90.0623 22.984L93.1343 14.608H97.5743ZM121.232 14.464C122.896 14.464 124.216 14.968 125.192 15.976C126.184 16.984 126.68 18.384 126.68 20.176V28H122.6V20.728C122.6 19.864 122.368 19.2 121.904 18.736C121.456 18.256 120.832 18.016 120.032 18.016C119.232 18.016 118.6 18.256 118.136 18.736C117.688 19.2 117.464 19.864 117.464 20.728V28H113.384V20.728C113.384 19.864 113.152 19.2 112.688 18.736C112.24 18.256 111.616 18.016 110.816 18.016C110.016 18.016 109.384 18.256 108.92 18.736C108.472 19.2 108.248 19.864 108.248 20.728V28H104.144V14.608H108.248V16.288C108.664 15.728 109.208 15.288 109.88 14.968C110.552 14.632 111.312 14.464 112.16 14.464C113.168 14.464 114.064 14.68 114.848 15.112C115.648 15.544 116.272 16.16 116.72 16.96C117.184 16.224 117.816 15.624 118.616 15.16C119.416 14.696 120.288 14.464 121.232 14.464ZM135.647 28.192C134.335 28.192 133.151 27.912 132.095 27.352C131.055 26.792 130.231 25.992 129.623 24.952C129.031 23.912 128.735 22.696 128.735 21.304C128.735 19.928 129.039 18.72 129.646 17.68C130.255 16.624 131.087 15.816 132.143 15.256C133.199 14.696 134.383 14.416 135.695 14.416C137.007 14.416 138.191 14.696 139.247 15.256C140.303 15.816 141.135 16.624 141.743 17.68C142.351 18.72 142.655 19.928 142.655 21.304C142.655 22.68 142.343 23.896 141.719 24.952C141.111 25.992 140.271 26.792 139.199 27.352C138.143 27.912 136.959 28.192 135.647 28.192ZM135.647 24.64C136.431 24.64 137.095 24.352 137.639 23.776C138.199 23.2 138.479 22.376 138.479 21.304C138.479 20.232 138.207 19.408 137.663 18.832C137.135 18.256 136.479 17.968 135.695 17.968C134.895 17.968 134.231 18.256 133.703 18.832C133.175 19.392 132.911 20.216 132.911 21.304C132.911 22.376 133.167 23.2 133.679 23.776C134.207 24.352 134.863 24.64 135.647 24.64ZM152.992 14.464C154.56 14.464 155.808 14.976 156.736 16C157.68 17.008 158.152 18.4 158.152 20.176V28H154.072V20.728C154.072 19.832 153.84 19.136 153.376 18.64C152.912 18.144 152.288 17.896 151.504 17.896C150.72 17.896 150.096 18.144 149.632 18.64C149.168 19.136 148.936 19.832 148.936 20.728V28H144.832V14.608H148.936V16.384C149.352 15.792 149.912 15.328 150.616 14.992C151.32 14.64 152.112 14.464 152.992 14.464ZM173.628 21.088C173.628 21.472 173.604 21.872 173.556 22.288H164.268C164.332 23.12 164.596 23.76 165.06 24.208C165.54 24.64 166.124 24.856 166.812 24.856C167.836 24.856 168.548 24.424 168.948 23.56H173.316C173.092 24.44 172.684 25.232 172.092 25.936C171.516 26.64 170.788 27.192 169.908 27.592C169.028 27.992 168.044 28.192 166.956 28.192C165.644 28.192 164.476 27.912 163.452 27.352C162.428 26.792 161.628 25.992 161.052 24.952C160.476 23.912 160.188 22.696 160.188 21.304C160.188 19.912 160.468 18.696 161.028 17.656C161.604 16.616 162.404 15.816 163.428 15.256C164.452 14.696 165.628 14.416 166.956 14.416C168.252 14.416 169.404 14.688 170.412 15.232C171.42 15.776 172.204 16.552 172.764 17.56C173.34 18.568 173.628 19.744 173.628 21.088ZM169.428 20.008C169.428 19.304 169.188 18.744 168.708 18.328C168.228 17.912 167.628 17.704 166.908 17.704C166.22 17.704 165.636 17.904 165.156 18.304C164.692 18.704 164.404 19.272 164.292 20.008H169.428ZM189.473 14.608L181.073 34.36H176.657L179.729 27.544L174.281 14.608H178.865L181.961 22.984L185.033 14.608H189.473Z" fill="white"/>
<path d="M34.1422 5.85781C30.3647 2.08031 25.3422 0 20 0C14.6578 0 9.63531 2.08031 5.85781 5.85781C2.08031 9.63531 0 14.6578 0 20C0 25.3422 2.08039 30.3646 5.85781 34.1422C9.63523 37.9198 14.6578 40 20 40C25.3422 40 30.3647 37.9197 34.1422 34.1422C37.9197 30.3647 40 25.3422 40 20C40 14.6578 37.9196 9.63539 34.1422 5.85781Z" fill="#33CC95"/>
<g clip-path="url(#clip0_35212_417)">
<path d="M20.5714 8V33.1429" stroke="white" stroke-width="2" stroke-linecap="round" stroke-linejoin="round"/>
<path d="M26.2857 12.5714H17.7143C16.6534 12.5714 15.636 12.9929 14.8859 13.743C14.1357 14.4931 13.7143 15.5106 13.7143 16.5714C13.7143 17.6323 14.1357 18.6497 14.8859 19.3999C15.636 20.15 16.6534 20.5714 17.7143 20.5714H23.4286C24.4894 20.5714 25.5069 20.9929 26.257 21.743C27.0072 22.4932 27.4286 23.5106 27.4286 24.5714C27.4286 25.6323 27.0072 26.6497 26.257 27.3999C25.5069 28.15 24.4894 28.5714 23.4286 28.5714H13.7143" stroke="white" stroke-width="2" stroke-linecap="round" stroke-linejoin="round"/>
</g>
<defs>
<clipPath id="clip0_35212_417">
<rect width="27.4286" height="27.4286" fill="white" transform="translate(6.85715 6.85714)"/>
</clipPath>
</defs>
</svg>
