<svg width="132" height="21" viewBox="0 0 132 21" fill="none" xmlns="http://www.w3.org/2000/svg">
<path d="M17.576 0.464C19.24 0.464 20.56 0.967999 21.536 1.976C22.528 2.984 23.024 4.384 23.024 6.176V14H18.944V6.728C18.944 5.864 18.712 5.2 18.248 4.736C17.8 4.256 17.176 4.016 16.376 4.016C15.576 4.016 14.944 4.256 14.48 4.736C14.032 5.2 13.808 5.864 13.808 6.728V14H9.728V6.728C9.728 5.864 9.496 5.2 9.032 4.736C8.584 4.256 7.96 4.016 7.16 4.016C6.36 4.016 5.728 4.256 5.264 4.736C4.816 5.2 4.592 5.864 4.592 6.728V14H0.488V0.607999H4.592V2.288C5.008 1.728 5.552 1.288 6.224 0.967999C6.896 0.631999 7.656 0.464 8.504 0.464C9.512 0.464 10.408 0.68 11.192 1.112C11.992 1.544 12.616 2.16 13.064 2.96C13.528 2.224 14.16 1.624 14.96 1.16C15.76 0.696 16.632 0.464 17.576 0.464ZM39.5743 0.607999L31.1743 20.36H26.7583L29.8303 13.544L24.3822 0.607999H28.9663L32.0623 8.984L35.1343 0.607999H39.5743ZM63.2323 0.464C64.8963 0.464 66.2163 0.967999 67.1923 1.976C68.1843 2.984 68.6803 4.384 68.6803 6.176V14H64.6003V6.728C64.6003 5.864 64.3683 5.2 63.9043 4.736C63.4563 4.256 62.8323 4.016 62.0323 4.016C61.2323 4.016 60.6003 4.256 60.1363 4.736C59.6883 5.2 59.4643 5.864 59.4643 6.728V14H55.3843V6.728C55.3843 5.864 55.1523 5.2 54.6883 4.736C54.2403 4.256 53.6163 4.016 52.8163 4.016C52.0163 4.016 51.3843 4.256 50.9203 4.736C50.4723 5.2 50.2483 5.864 50.2483 6.728V14H46.1443V0.607999H50.2483V2.288C50.6643 1.728 51.2083 1.288 51.8803 0.967999C52.5523 0.631999 53.3123 0.464 54.1603 0.464C55.1683 0.464 56.0643 0.68 56.8483 1.112C57.6483 1.544 58.2723 2.16 58.7203 2.96C59.1843 2.224 59.8163 1.624 60.6163 1.16C61.4163 0.696 62.2883 0.464 63.2323 0.464ZM77.6465 14.192C76.3345 14.192 75.1505 13.912 74.0945 13.352C73.0545 12.792 72.2305 11.992 71.6225 10.952C71.0305 9.912 70.7345 8.696 70.7345 7.304C70.7345 5.928 71.0385 4.72 71.6465 3.68C72.2545 2.624 73.0865 1.816 74.1425 1.256C75.1985 0.695999 76.3825 0.415999 77.6945 0.415999C79.0065 0.415999 80.1905 0.695999 81.2465 1.256C82.3025 1.816 83.1345 2.624 83.7425 3.68C84.3505 4.72 84.6545 5.928 84.6545 7.304C84.6545 8.68 84.3425 9.896 83.7185 10.952C83.1105 11.992 82.2705 12.792 81.1985 13.352C80.1425 13.912 78.9585 14.192 77.6465 14.192ZM77.6465 10.64C78.4305 10.64 79.0945 10.352 79.6385 9.776C80.1985 9.2 80.4785 8.376 80.4785 7.304C80.4785 6.232 80.2065 5.408 79.6625 4.832C79.1345 4.256 78.4785 3.968 77.6945 3.968C76.8945 3.968 76.2305 4.256 75.7025 4.832C75.1745 5.392 74.9105 6.216 74.9105 7.304C74.9105 8.376 75.1665 9.2 75.6785 9.776C76.2065 10.352 76.8625 10.64 77.6465 10.64ZM94.9918 0.464C96.5598 0.464 97.8078 0.976 98.7358 2C99.6798 3.008 100.152 4.4 100.152 6.176V14H96.0718V6.728C96.0718 5.832 95.8398 5.136 95.3758 4.64C94.9118 4.144 94.2878 3.896 93.5038 3.896C92.7198 3.896 92.0958 4.144 91.6318 4.64C91.1678 5.136 90.9358 5.832 90.9358 6.728V14H86.8318V0.607999H90.9358V2.384C91.3518 1.792 91.9118 1.328 92.6158 0.991999C93.3198 0.639999 94.1118 0.464 94.9918 0.464ZM115.628 7.088C115.628 7.472 115.604 7.872 115.556 8.288H106.268C106.332 9.12 106.596 9.76 107.06 10.208C107.54 10.64 108.124 10.856 108.812 10.856C109.836 10.856 110.548 10.424 110.948 9.56H115.316C115.092 10.44 114.684 11.232 114.092 11.936C113.516 12.64 112.788 13.192 111.908 13.592C111.028 13.992 110.044 14.192 108.956 14.192C107.644 14.192 106.476 13.912 105.452 13.352C104.428 12.792 103.628 11.992 103.052 10.952C102.476 9.912 102.188 8.696 102.188 7.304C102.188 5.912 102.468 4.696 103.028 3.656C103.604 2.616 104.404 1.816 105.428 1.256C106.452 0.695999 107.628 0.415999 108.956 0.415999C110.252 0.415999 111.404 0.687999 112.412 1.232C113.42 1.776 114.204 2.552 114.764 3.56C115.34 4.568 115.628 5.744 115.628 7.088ZM111.428 6.008C111.428 5.304 111.188 4.744 110.708 4.328C110.228 3.912 109.628 3.704 108.908 3.704C108.22 3.704 107.636 3.904 107.156 4.304C106.692 4.704 106.404 5.272 106.292 6.008H111.428ZM131.473 0.607999L123.073 20.36H118.657L121.729 13.544L116.281 0.607999H120.865L123.961 8.984L127.033 0.607999H131.473Z" fill="white"/>
</svg>
